:SAMPLES-PER-SECOND 30
:FULLY-SPECIFIED
:DEGREES
522
root  -60.8802 37.1913 -4.67799 15.9764 -77.1493 -25.7561
RightUpLeg  -22.5653 -15.6205 2.05938
RightLeg  30.9813 3.23652 1.85238
RightFoot  0.846971 0.0344675 -0.249791
RightToes  5.82063e-011 0 -3.6325e-017
Spine  94.1015 -17.8866 13.1428
Spine1  -7.0214 -0.961881 -7.47162
HEad  -42.8876 -9.30815 4.52183
LeftShoulder1  1.47652 -16.2297 1.08266
LeftArm  -34.9605 -72.2635 -20.441
LeftForeArm  -2.98777 -5.66997 -0.272231
LeftHand  -0.0192608 6.49029 1.64847
RightShoulder  1.21065 6.9107 3.61769
RightArm  -36.0585 66.0727 4.43618
RightForeArm  -30.2965 -3.48027 0.882966
RightHand  -0.456089 6.94443 -4.62859
LeftUpLeg  -26.8993 4.27829 2.32662
LeftLeg  38.5918 -8.92103 -7.2022
LeftFoot  0.665587 -1.09614 10.3621
LeftToes  1.81573e-012 2.54609e-010 -3.45981e-011
523
root  -61.159 36.9409 -4.76951 16.3103 -75.6183 -26.3258
RightUpLeg  -23.2877 -18.6253 2.71249
RightLeg  33.8113 4.2836 2.81529
RightFoot  -1.18752 0.02805 -0.421705
RightToes  5.82063e-011 0 -3.6325e-017
Spine  98.7962 -20.8861 13.4059
Spine1  -10.2614 -1.91726 -9.34273
HEad  -42.9323 -9.15557 5.98082
LeftShoulder1  1.0587 -17.2201 3.83894
LeftArm  -40.7748 -71.634 -13.3309
LeftForeArm  -4.53295 -5.15157 0.23765
LeftHand  -0.0336521 4.90218 2.24566
RightShoulder  1.1257 7.09027 2.49716
RightArm  -38.7486 66.054 2.42846
RightForeArm  -30.6886 -3.81767 0.279655
RightHand  -0.559832 7.73344 -5.31065
LeftUpLeg  -27.9237 2.59428 3.01478
LeftLeg  41.2401 -8.15784 -7.2251
LeftFoot  -0.537401 -1.03814 10.9701
LeftToes  1.81573e-012 2.54609e-010 -3.45981e-011
524
root  -61.4491 36.6456 -4.95724 15.9307 -75.61 -24.602
RightUpLeg  -26.2678 -18.8002 3.131
RightLeg  37.1709 4.08772 3.04083
RightFoot  -2.47579 0.109988 -1.62964
RightToes  5.82063e-011 0 -3.6325e-017
Spine  101.452 -19.2527 13.0268
Spine1  -12.8313 -1.10938 -6.07633
HEad  -42.4648 -9.80288 4.36988
LeftShoulder1  0.862581 -16.4986 4.72232
LeftArm  -43.0123 -72.5955 -14.4693
LeftForeArm  -3.23646 -5.99322 1.86975
LeftHand  -0.0303579 5.19058 1.97901
RightShoulder  0.99336 7.38669 0.776343
RightArm  -41.2761 65.3336 -1.81614
RightForeArm  -31.6107 -3.94191 0.278648
RightHand  -0.627513 8.31149 -5.67659
LeftUpLeg  -30.3051 2.05439 2.94571
LeftLeg  43.6511 -7.37998 -7.09966
LeftFoot  -1.97237 -0.880825 10.8582
LeftToes  1.81573e-012 2.54609e-010 -3.45981e-011
525
root  -61.754 36.4058 -5.1052 16.6167 -75.5196 -23.9271
RightUpLeg  -28.8471 -18.7423 3.75889
RightLeg  39.8215 3.80268 3.10265
RightFoot  -3.38745 0.149234 -2.47575
RightToes  5.82063e-011 0 -3.6325e-017
Spine  102.354 -19.3286 12.9178
Spine1  -12.4167 -0.949889 -6.361
HEad  -43.7726 -10.0196 4.84649
LeftShoulder1  0.473751 -17.1011 7.01117
LeftArm  -49.5043 -71.7422 -6.98201
LeftForeArm  -6.21221 -6.41629 2.46506
LeftHand  -0.039079 4.68307 2.71023
RightShoulder  0.897305 7.59392 -0.404609
RightArm  -45.5444 64.8537 -5.96127
RightForeArm  -32.8495 -4.20322 -0.428907
RightHand  -0.712757 8.54564 -6.30315
LeftUpLeg  -32.4646 1.31365 3.20154
LeftLeg  45.6804 -6.73965 -6.94684
LeftFoot  -3.3202 -0.721837 10.5442
LeftToes  1.81573e-012 2.54609e-010 -3.45981e-011
526
root  -62.0786 36.3563 -5.16181 17.1586 -74.7623 -26.242
RightUpLeg  -26.7293 -19.3905 4.05596
RightLeg  40.6523 3.67421 3.07466
RightFoot  -4.18425 0.156794 -2.92323
RightToes  5.82063e-011 0 -3.6325e-017
Spine  106.119 -20.7518 12.402
Spine1  -12.5807 -1.05146 -7.16845
HEad  -44.6155 -9.57378 5.86254
LeftShoulder1  0.0363366 -17.6886 9.47377
LeftArm  -52.8359 -69.8526 -2.35965
LeftForeArm  -8.36468 -6.88586 2.79954
LeftHand  -0.0351529 4.89654 2.63881
RightShoulder  0.790957 7.73152 -1.6064
RightArm  -48.1644 64.2513 -7.40359
RightForeArm  -33.9031 -3.83693 -1.21096
RightHand  -0.768011 9.1371 -6.5029
LeftUpLeg  -30.9021 0.00226314 4.37571
LeftLeg  47.0173 -6.0193 -6.4663
LeftFoot  -4.55475 -0.571284 10.0749
LeftToes  1.81573e-012 2.54609e-010 -3.45981e-011
527
root  -62.3528 36.1718 -5.19717 17.8121 -74.1021 -25.8592
RightUpLeg  -28.3789 -19.5495 4.49292
RightLeg  42.4555 3.12532 2.75008
RightFoot  -5.97689 0.0480386 -1.89617
RightToes  5.82063e-011 0 -3.6325e-017
Spine  105.935 -20.7929 13.0821
Spine1  -11.7631 -0.604074 -5.54298
HEad  -45.989 -9.40195 5.67571
LeftShoulder1  -0.0925263 -17.138 10.165
LeftArm  -57.2596 -70.191 0.721484
LeftForeArm  -8.10605 -7.04327 3.9701
LeftHand  -0.0405773 4.72747 3.02189
RightShoulder  0.619263 7.6992 -3.33103
RightArm  -50.2118 62.8685 -10.1256
RightForeArm  -35.8767 -2.84085 -1.45926
RightHand  -0.856097 10.7616 -6.48752
LeftUpLeg  -32.6445 -1.68399 4.69743
LeftLeg  48.6238 -5.11875 -5.78814
LeftFoot  -5.49217 -0.469589 9.81819
LeftToes  1.81573e-012 2.54609e-010 -3.45981e-011
528
root  -62.6072 36.279 -5.33889 15.8123 -74.1608 -24.4202
RightUpLeg  -27.2276 -18.8846 4.06124
RightLeg  42.4265 2.5343 2.16956
RightFoot  -6.41938 0.0276921 -1.62478
RightToes  5.82063e-011 0 -3.6325e-017
Spine  107.722 -20.6283 12.3177
Spine1  -10.6958 -0.305098 -5.60442
HEad  -46.2768 -9.55542 5.73942
LeftShoulder1  -0.257072 -17.3927 11.0665
LeftArm  -59.8636 -68.9616 2.80634
LeftForeArm  -10.2575 -8.13539 4.75345
LeftHand  -0.0620352 3.99199 3.6426
RightShoulder  0.556774 7.7803 -4.01643
RightArm  -52.1212 61.5426 -11.4821
RightForeArm  -32.9551 -0.944643 -2.17243
RightHand  -0.569427 8.93889 -4.97461
LeftUpLeg  -31.3994 -2.33473 4.65089
LeftLeg  48.2845 -4.79015 -5.31831
LeftFoot  -5.65484 -0.436017 9.44374
LeftToes  1.81573e-012 2.54609e-010 -3.45981e-011
529
root  -62.8092 36.3559 -5.41109 14.877 -74.4012 -24.0719
RightUpLeg  -26.274 -18.0603 3.86287
RightLeg  42.5556 2.09367 1.74599
RightFoot  -6.0166 0.0942053 -2.89233
RightToes  5.82063e-011 0 -3.6325e-017
Spine  109.498 -20.3127 11.6974
Spine1  -10.788 -0.257009 -5.08975
HEad  -45.3641 -9.23706 5.83983
LeftShoulder1  -0.251637 -16.9525 11.065
LeftArm  -60.2714 -68.089 3.43264
LeftForeArm  -7.72166 -9.81194 4.48525
LeftHand  -0.085258 3.2034 3.7489
RightShoulder  0.542659 7.31354 -3.92184
RightArm  -52.9309 61.6225 -12.9133
RightForeArm  -32.9803 0.304703 -1.94117
RightHand  -0.880136 10.467 -6.85641
LeftUpLeg  -30.3228 -2.23495 4.68274
LeftLeg  48.2257 -4.76697 -5.27997
LeftFoot  -5.90952 -0.405183 9.27274
LeftToes  1.81573e-012 2.54609e-010 -3.45981e-011
530
root  -62.9778 36.3832 -5.43917 14.5423 -74.4528 -22.5283
RightUpLeg  -27.3887 -17.7685 3.82815
RightLeg  42.7334 1.93051 1.59668
RightFoot  -6.60246 0.0531372 -2.35798
RightToes  5.82063e-011 0 -3.6325e-017
Spine  108.98 -20.4205 11.6194
Spine1  -10.3596 -0.566247 -5.48752
HEad  -44.7188 -9.29434 5.86494
LeftShoulder1  -0.260559 -16.9227 11.1178
LeftArm  -61.0768 -67.0316 5.21949
LeftForeArm  -7.66283 -10.7386 3.95399
LeftHand  -0.098712 2.79011 3.8522
RightShoulder  0.510993 7.03013 -4.11344
RightArm  -54.4835 61.4418 -13.1301
RightForeArm  -31.8404 1.60194 -2.42984
RightHand  -0.912617 11.8084 -6.55739
LeftUpLeg  -31.2314 -2.28806 4.38461
LeftLeg  48.0844 -4.68707 -5.1581
LeftFoot  -6.05637 -0.392851 9.28225
LeftToes  1.81573e-012 2.54609e-010 -3.45981e-011
531
root  -63.0997 36.4942 -5.41525 15.1424 -74.3259 -22.6368
RightUpLeg  -27.4091 -18.1224 4.02605
RightLeg  42.1801 2.13267 1.75932
RightFoot  -6.20648 0.0837993 -2.80151
RightToes  5.82063e-011 0 -3.6325e-017
Spine  108.364 -20.5079 11.9051
Spine1  -9.23802 -0.402297 -5.24148
HEad  -44.7493 -9.15301 5.45791
LeftShoulder1  -0.332891 -16.9338 11.5194
LeftArm  -63.3012 -66.4007 5.96193
LeftForeArm  -7.74514 -11.646 4.30678
LeftHand  -0.094099 2.81095 3.67811
RightShoulder  0.483714 6.90057 -4.34199
RightArm  -55.4335 60.9914 -14.5478
RightForeArm  -34.0479 2.00408 -2.36189
RightHand  -0.994289 11.2156 -7.33759
LeftUpLeg  -31.3063 -2.3347 4.49288
LeftLeg  47.6213 -4.80153 -5.20459
LeftFoot  -5.96092 -0.398483 9.22605
LeftToes  1.81573e-012 2.54609e-010 -3.45981e-011
532
root  -63.1621 36.5789 -5.3818 15.9079 -74.4492 -22.3526
RightUpLeg  -28.1587 -18.3684 4.22924
RightLeg  41.5651 2.46573 2.03651
RightFoot  -6.33744 0.0560288 -2.26455
RightToes  5.82063e-011 0 -3.6325e-017
Spine  107.175 -20.3318 12.2973
Spine1  -9.26174 -0.27196 -5.31304
HEad  -45.421 -8.71771 5.6196
LeftShoulder1  -0.339575 -17.4485 11.5149
LeftArm  -63.0933 -66.0523 5.825
LeftForeArm  -6.46246 -11.7716 4.23256
LeftHand  -0.0908515 2.75034 3.35147
RightShoulder  0.567198 6.85387 -3.39679
RightArm  -55.3845 61.1857 -15.9355
RightForeArm  -32.8689 1.66302 -2.03414
RightHand  -0.877945 10.6694 -6.72387
LeftUpLeg  -32.0153 -2.14249 4.40748
LeftLeg  47.11 -4.89075 -5.21037
LeftFoot  -5.79733 -0.40678 9.10158
LeftToes  1.81573e-012 2.54609e-010 -3.45981e-011
533
root  -63.1962 36.7454 -5.30925 17.2717 -74.7509 -22.5054
RightUpLeg  -28.8078 -18.1448 4.49809
RightLeg  40.3348 2.69366 2.14901
RightFoot  -5.64191 0.0787342 -2.3457
RightToes  5.82063e-011 0 -3.6325e-017
Spine  106.209 -20.3195 12.6267
Spine1  -10.6544 -0.3561 -5.95409
HEad  -44.6937 -9.14626 5.5211
LeftShoulder1  -0.155399 -17.9053 10.4868
LeftArm  -60.3429 -66.2576 4.52493
LeftForeArm  -4.63079 -11.2532 3.79238
LeftHand  -0.0485624 3.40963 1.92347
RightShoulder  0.629712 6.98831 -2.79018
RightArm  -53.8814 61.8482 -14.4178
RightForeArm  -29.8913 1.37304 -1.86139
RightHand  -0.713114 9.41113 -5.98361
LeftUpLeg  -32.4429 -2.02731 4.32313
LeftLeg  45.7558 -4.82978 -4.89494
LeftFoot  -5.49489 -0.442768 9.29854
LeftToes  1.81573e-012 2.54609e-010 -3.45981e-011
534
root  -63.23 37.0017 -5.21723 18.2408 -75.3695 -22.4036
RightUpLeg  -28.811 -17.6685 4.5015
RightLeg  38.2702 2.9675 2.23054
RightFoot  -4.77046 0.100532 -2.31751
RightToes  5.82063e-011 0 -3.6325e-017
Spine  104.456 -19.702 12.8708
Spine1  -10.1397 -0.0427034 -6.23253
HEad  -44.8721 -10.1268 4.70176
LeftShoulder1  -0.0249501 -18.1107 9.79252
LeftArm  -59.5369 -66.6156 3.24275
LeftForeArm  -3.48871 -11.2432 3.79969
LeftHand  -0.0438495 3.73778 1.61961
RightShoulder  0.707544 6.98407 -1.9415
RightArm  -53.9603 62.8338 -16.022
RightForeArm  -27.9606 0.4437 -1.40007
RightHand  -0.685705 7.47633 -6.53423
LeftUpLeg  -32.2854 -2.06372 4.09738
LeftLeg  43.773 -4.59337 -4.31191
LeftFoot  -5.05961 -0.469178 9.0926
LeftToes  1.81573e-012 2.54609e-010 -3.45981e-011
535
root  -63.2386 37.2827 -5.10999 19.2421 -76.0695 -22.2157
RightUpLeg  -28.7176 -16.4483 4.37531
RightLeg  35.7107 2.76547 1.86053
RightFoot  -3.82335 0.106099 -2.00618
RightToes  5.82063e-011 0 -3.6325e-017
Spine  102.219 -19.5488 12.9685
Spine1  -9.49598 -0.204028 -7.63177
HEad  -46.9407 -10.5177 4.89263
LeftShoulder1  0.214789 -18.0141 8.50301
LeftArm  -57.8994 -67.3082 0.838003
LeftForeArm  -2.10526 -11.0475 3.85981
LeftHand  -0.0308027 4.17629 0.711082
RightShoulder  0.798716 6.98522 -0.934336
RightArm  -53.2961 64.2807 -14.885
RightForeArm  -24.7737 0.370982 -1.17193
RightHand  -0.683634 6.09497 -7.22204
LeftUpLeg  -32.1695 -1.93937 3.80939
LeftLeg  41.5209 -4.41082 -3.79424
LeftFoot  -4.45523 -0.497411 8.69132
LeftToes  1.81573e-012 2.54609e-010 -3.45981e-011
536
root  -63.2546 37.5618 -4.97019 21.0255 -76.7249 -22.7091
RightUpLeg  -28.7606 -15.5939 4.37137
RightLeg  33.1682 2.98587 1.84282
RightFoot  -2.6062 0.1145 -1.73474
RightToes  5.82063e-011 0 -3.6325e-017
Spine  98.7917 -18.0898 13.6011
Spine1  -8.12362 0.361802 -6.09115
HEad  -48.8539 -10.979 3.93996
LeftShoulder1  0.721695 -17.2319 5.68326
LeftArm  -53.8474 -69.1572 -4.86193
LeftForeArm  -1.02691 -10.6389 3.73967
LeftHand  -0.0470585 3.52872 1.97185
RightShoulder  0.88391 6.61936 0.325048
RightArm  -51.4478 65.7551 -13.7545
RightForeArm  -21.8556 1.43668 -0.319803
RightHand  -0.710789 5.31684 -7.97686
LeftUpLeg  -32.191 -1.42481 3.58421
LeftLeg  39.3118 -4.38228 -3.4704
LeftFoot  -3.68005 -0.568167 8.80028
LeftToes  1.81573e-012 2.54609e-010 -3.45981e-011
